<svg xmlns="http://www.w3.org/2000/svg" xmlns:xlink="http://www.w3.org/1999/xlink"><symbol fill="none" viewBox="0 0 22 22" id="arrow"><path d="M11 21l10-10L11 1M1 11h20" stroke="#fff" stroke-width="2" stroke-linecap="round" stroke-linejoin="round"/></symbol><symbol fill="none" viewBox="0 0 30 30" id="cart"><path d="M11.25 27.5a1.25 1.25 0 100-2.5 1.25 1.25 0 000 2.5zm13.75 0a1.25 1.25 0 100-2.5 1.25 1.25 0 000 2.5zM1.25 1.25h5L9.6 17.988A2.5 2.5 0 0012.1 20h12.15a2.5 2.5 0 002.5-2.012l2-10.488H7.5" stroke="#929292" stroke-width="2" stroke-linecap="round" stroke-linejoin="round"/></symbol><symbol fill="none" viewBox="0 0 50 51" id="grear"><path d="M25 31.875c3.452 0 6.25-2.854 6.25-6.375 0-3.52-2.798-6.375-6.25-6.375s-6.25 2.854-6.25 6.375c0 3.52 2.798 6.375 6.25 6.375z" stroke="#6C0BF4" stroke-width="3" stroke-linecap="round" stroke-linejoin="round"/><path d="M40.417 31.875a3.571 3.571 0 00-.238 2.041c.123.69.445 1.326.925 1.827l.125.127c.388.395.695.863.905 1.38a4.325 4.325 0 010 3.254c-.21.516-.517.985-.905 1.38a4.162 4.162 0 01-1.352.922 4.097 4.097 0 01-3.191 0 4.163 4.163 0 01-1.353-.922l-.125-.128a3.416 3.416 0 00-1.79-.943 3.377 3.377 0 00-2.001.242 3.454 3.454 0 00-1.512 1.287 3.556 3.556 0 00-.572 1.922v.361a4.293 4.293 0 01-1.22 3.005 4.126 4.126 0 01-2.946 1.245 4.126 4.126 0 01-2.947-1.245A4.293 4.293 0 0121 44.625v-.191a3.554 3.554 0 00-.64-1.958 3.447 3.447 0 00-1.61-1.251 3.376 3.376 0 00-2.001-.242c-.676.125-1.3.453-1.79.943l-.126.128a4.164 4.164 0 01-1.352.922 4.097 4.097 0 01-3.191 0 4.163 4.163 0 01-1.353-.922 4.258 4.258 0 01-.904-1.38 4.324 4.324 0 010-3.255c.21-.516.517-.984.904-1.379l.125-.127a3.568 3.568 0 00.688-3.868 3.49 3.49 0 00-1.262-1.542 3.39 3.39 0 00-1.884-.583H6.25a4.126 4.126 0 01-2.946-1.245 4.293 4.293 0 01-1.22-3.005 4.29 4.29 0 011.22-3.005A4.126 4.126 0 016.25 21.42h.187a3.393 3.393 0 001.92-.653 3.5 3.5 0 001.226-1.642 3.57 3.57 0 00.238-2.041 3.53 3.53 0 00-.925-1.826l-.125-.128a4.256 4.256 0 01-.905-1.38 4.324 4.324 0 010-3.254c.21-.516.517-.985.905-1.38a4.162 4.162 0 011.352-.922 4.096 4.096 0 013.191 0c.506.214.966.527 1.353.922l.125.128a3.381 3.381 0 003.791.701h.167a3.454 3.454 0 001.512-1.287 3.55 3.55 0 00.571-1.922v-.361c0-1.127.44-2.208 1.22-3.005A4.126 4.126 0 0125 2.125c1.105 0 2.165.448 2.946 1.245a4.293 4.293 0 011.22 3.005v.191a3.56 3.56 0 00.572 1.922c.37.57.896 1.018 1.512 1.287a3.376 3.376 0 002.001.242 3.415 3.415 0 001.79-.943l.126-.128a4.163 4.163 0 011.352-.922 4.096 4.096 0 013.191 0c.506.214.965.527 1.352.922.388.395.695.864.905 1.38a4.324 4.324 0 010 3.255c-.21.516-.517.984-.904 1.379l-.126.127a3.53 3.53 0 00-.924 1.827c-.123.69-.04 1.4.237 2.041v.17a3.491 3.491 0 001.261 1.542c.56.378 1.214.58 1.885.583h.354c1.105 0 2.165.448 2.946 1.245a4.293 4.293 0 011.22 3.005 4.293 4.293 0 01-1.22 3.005 4.126 4.126 0 01-2.946 1.245h-.188a3.389 3.389 0 00-1.884.583 3.49 3.49 0 00-1.261 1.542v0z" stroke="#363636" stroke-width="3" stroke-linecap="round" stroke-linejoin="round"/></symbol><symbol fill="none" viewBox="0 0 30 30" id="heart"><path d="M26.05 5.762a6.875 6.875 0 00-9.725 0L15 7.087l-1.325-1.325a6.877 6.877 0 10-9.725 9.726l1.325 1.325L15 26.538l9.725-9.726 1.325-1.325a6.875 6.875 0 000-9.725v0z" stroke="#929292" stroke-width="2" stroke-linecap="round" stroke-linejoin="round"/></symbol><symbol fill="none" viewBox="0 0 54 48" id="list"><path d="M35.305 9.563H3.8a2 2 0 00-2 2V44.4a2 2 0 002 2h41.86a6.14 6.14 0 006.14-6.14v0m0 0V10.4a8 8 0 00-8-8h-.31a2 2 0 00-2 2v27.108c0 1.143.96 2.048 2.099 2.149 3.563.316 8.21 1.891 8.21 6.604z" stroke="#363636" stroke-width="3"/><path d="M11.037 38.873V19.947a2 2 0 012-2h10.757m-4.725 15.446v2.987a1 1 0 001 1h14.064a1 1 0 001-1V19.946a2 2 0 00-2-2h-9.339m-6.23 9.156h5.23a1 1 0 001-1v-8.156" stroke="#6C0BF4" stroke-width="3"/></symbol><symbol fill="none" viewBox="0 0 48 48" id="ok"><circle cx="24" cy="24" r="22.5" stroke="#363636" stroke-width="3"/><path d="M12.396 23.369l9.474 9.473 13.894-18.947" stroke="#6C0BF4" stroke-width="3" stroke-linecap="round"/></symbol><symbol fill="none" viewBox="0 0 54 55" id="plan"><path d="M36 9.167h4.5a4.46 4.46 0 013.182 1.342A4.627 4.627 0 0145 13.75v32.083a4.627 4.627 0 01-1.318 3.241 4.459 4.459 0 01-3.182 1.343h-27a4.459 4.459 0 01-3.182-1.343A4.627 4.627 0 019 45.834V13.75c0-1.216.474-2.381 1.318-3.24A4.459 4.459 0 0113.5 9.166H18" stroke="#363636" stroke-width="3" stroke-linecap="round" stroke-linejoin="round"/><path d="M33.75 4.583h-13.5C19.007 4.583 18 5.61 18 6.875v4.583c0 1.266 1.007 2.292 2.25 2.292h13.5c1.243 0 2.25-1.026 2.25-2.292V6.875c0-1.266-1.007-2.292-2.25-2.292z" stroke="#363636" stroke-width="3" stroke-linecap="round" stroke-linejoin="round"/><path fill="#6C0BF4" d="M17 23h20v3H17zm0 7h20v3H17zm0 7h20v3H17z"/></symbol><symbol fill="none" viewBox="0 0 50 50" id="toggler"><path d="M4.167 25c0 11.506 9.327 20.833 20.833 20.833 11.506 0 20.833-9.327 20.833-20.833 0-11.506-9.327-20.833-20.833-20.833C13.494 4.167 4.167 13.494 4.167 25z" fill="#F46E0B"/><path d="M16.667 22.5L25 30.833l8.333-8.333" stroke="#fff" stroke-width="2" stroke-linecap="round" stroke-linejoin="round"/></symbol></svg>